<mxfile host="app.diagrams.net" modified="2022-10-24T08:25:32.381Z" agent="5.0 (Windows NT 10.0; Win64; x64) AppleWebKit/537.36 (KHTML, like Gecko) Chrome/106.0.0.0 Safari/537.36" etag="DgSiUmwpsxhQnkMyoEKV" version="20.5.1" type="github" pages="2">
  <diagram id="BBXMDLWexgNHXStlUghI" name="第 1 页">
    <mxGraphModel dx="1422" dy="762" grid="1" gridSize="10" guides="1" tooltips="1" connect="1" arrows="1" fold="1" page="1" pageScale="1" pageWidth="827" pageHeight="1169" math="0" shadow="0">
      <root>
        <mxCell id="0" />
        <mxCell id="1" parent="0" />
        <mxCell id="4W47WXiIxA4cp3ruPkWv-2" value="" style="rounded=1;whiteSpace=wrap;html=1;fillColor=none;gradientColor=default;" parent="1" vertex="1">
          <mxGeometry x="80" y="130" width="410" height="390" as="geometry" />
        </mxCell>
        <mxCell id="4W47WXiIxA4cp3ruPkWv-3" value="Gateway" style="text;html=1;strokeColor=none;fillColor=none;align=center;verticalAlign=middle;whiteSpace=wrap;rounded=0;fontSize=24;fontStyle=1" parent="1" vertex="1">
          <mxGeometry x="200" y="140" width="170" height="30" as="geometry" />
        </mxCell>
      </root>
    </mxGraphModel>
  </diagram>
  <diagram id="xviTeKz7JahX0lnfoxqD" name="Dp打开流程">
    <mxGraphModel dx="2249" dy="762" grid="0" gridSize="10" guides="1" tooltips="1" connect="1" arrows="1" fold="1" page="1" pageScale="1" pageWidth="827" pageHeight="1169" math="0" shadow="0">
      <root>
        <mxCell id="0" />
        <mxCell id="1" parent="0" />
        <mxCell id="yZY2_47EHBW4KeKbYEES-3" value="1.不区分安装态下发DP广告" style="edgeStyle=orthogonalEdgeStyle;rounded=0;orthogonalLoop=1;jettySize=auto;html=1;" edge="1" parent="1" source="yZY2_47EHBW4KeKbYEES-1" target="yZY2_47EHBW4KeKbYEES-2">
          <mxGeometry relative="1" as="geometry" />
        </mxCell>
        <mxCell id="yZY2_47EHBW4KeKbYEES-1" value="品牌服务端" style="rounded=1;whiteSpace=wrap;html=1;gradientColor=none;fillColor=#99FF33;" vertex="1" parent="1">
          <mxGeometry x="-390" y="233" width="120" height="60" as="geometry" />
        </mxCell>
        <mxCell id="yZY2_47EHBW4KeKbYEES-5" value="2. 传输dp给浏览器客户端" style="edgeStyle=orthogonalEdgeStyle;rounded=0;orthogonalLoop=1;jettySize=auto;html=1;entryX=0;entryY=0.5;entryDx=0;entryDy=0;" edge="1" parent="1" source="yZY2_47EHBW4KeKbYEES-2" target="yZY2_47EHBW4KeKbYEES-4">
          <mxGeometry relative="1" as="geometry" />
        </mxCell>
        <mxCell id="yZY2_47EHBW4KeKbYEES-9" value="5. DP打开上报bd-click(enterId = 7)" style="edgeStyle=orthogonalEdgeStyle;rounded=0;orthogonalLoop=1;jettySize=auto;html=1;entryX=0.5;entryY=1;entryDx=0;entryDy=0;" edge="1" parent="1" source="yZY2_47EHBW4KeKbYEES-2" target="yZY2_47EHBW4KeKbYEES-1">
          <mxGeometry relative="1" as="geometry">
            <Array as="points">
              <mxPoint y="313" />
              <mxPoint x="-330" y="313" />
            </Array>
          </mxGeometry>
        </mxCell>
        <mxCell id="yZY2_47EHBW4KeKbYEES-2" value="开屏SDK" style="rounded=1;whiteSpace=wrap;html=1;gradientColor=none;fillColor=#C3ABD0;" vertex="1" parent="1">
          <mxGeometry x="-60" y="233" width="120" height="60" as="geometry" />
        </mxCell>
        <mxCell id="yZY2_47EHBW4KeKbYEES-8" value="4. 返回打开结果" style="edgeStyle=orthogonalEdgeStyle;rounded=0;orthogonalLoop=1;jettySize=auto;html=1;entryX=0.5;entryY=1;entryDx=0;entryDy=0;" edge="1" parent="1" source="yZY2_47EHBW4KeKbYEES-4" target="yZY2_47EHBW4KeKbYEES-2">
          <mxGeometry relative="1" as="geometry">
            <Array as="points">
              <mxPoint x="290" y="313" />
              <mxPoint y="313" />
            </Array>
          </mxGeometry>
        </mxCell>
        <mxCell id="yZY2_47EHBW4KeKbYEES-4" value="浏览器客户端" style="rounded=1;whiteSpace=wrap;html=1;gradientColor=none;fillColor=#D4E1F5;" vertex="1" parent="1">
          <mxGeometry x="270" y="233" width="120" height="60" as="geometry" />
        </mxCell>
        <mxCell id="yZY2_47EHBW4KeKbYEES-6" value="3. 安卓系统判断pkgName打开" style="edgeStyle=orthogonalEdgeStyle;rounded=0;orthogonalLoop=1;jettySize=auto;html=1;entryX=1;entryY=0.75;entryDx=0;entryDy=0;" edge="1" parent="1" source="yZY2_47EHBW4KeKbYEES-4" target="yZY2_47EHBW4KeKbYEES-4">
          <mxGeometry relative="1" as="geometry" />
        </mxCell>
      </root>
    </mxGraphModel>
  </diagram>
</mxfile>
